<?xml version="1.0" standalone="no"?>
<!DOCTYPE svg PUBLIC "-//W3C//DTD SVG 20010904//EN"
 "http://www.w3.org/TR/2001/REC-SVG-20010904/DTD/svg10.dtd">
<svg version="1.0" xmlns="http://www.w3.org/2000/svg"
 width="600.000000pt" height="600.000000pt" viewBox="0 0 600.000000 600.000000"
 preserveAspectRatio="xMidYMid meet">

<g transform="translate(0.000000,600.000000) scale(0.100000,-0.100000)"
fill="#000000" stroke="none">
<path d="M0 3000 l0 -3000 3000 0 3000 0 0 3000 0 3000 -3000 0 -3000 0 0
-3000z m5750 0 l0 -2750 -2750 0 -2750 0 0 2750 0 2750 2750 0 2750 0 0 -2750z"/>
<path d="M500 5375 l0 -125 125 0 125 0 0 -125 0 -125 125 0 125 0 0 -125 0
-125 -125 0 -125 0 0 -250 0 -250 125 0 125 0 0 -125 0 -125 -125 0 -125 0 0
-125 0 -125 250 0 250 0 0 125 0 125 125 0 125 0 0 -125 0 -125 125 0 125 0 0
375 0 375 -125 0 -125 0 0 -125 0 -125 -125 0 -125 0 0 125 0 125 -125 0 -125
0 0 125 0 125 125 0 125 0 0 125 0 125 125 0 125 0 0 -125 0 -125 125 0 125 0
0 125 0 125 -125 0 -125 0 0 125 0 125 -125 0 -125 0 0 -125 0 -125 -125 0
-125 0 0 125 0 125 -125 0 -125 0 0 125 0 125 -125 0 -125 0 0 -125z"/>
<path d="M2750 5125 l0 -125 -250 0 -250 0 0 -125 0 -125 125 0 125 0 0 -125
0 -125 -125 0 -125 0 0 -375 0 -375 -125 0 -125 0 0 -125 0 -125 125 0 125 0
0 125 0 125 125 0 125 0 0 125 0 125 250 0 250 0 0 -125 0 -125 250 0 250 0 0
500 0 500 -125 0 -125 0 0 125 0 125 -125 0 -125 0 0 125 0 125 -125 0 -125 0
0 -125z m250 -500 l0 -375 125 0 125 0 0 -125 0 -125 -125 0 -125 0 0 125 0
125 -250 0 -250 0 0 125 0 125 125 0 125 0 0 250 0 250 125 0 125 0 0 -375z"/>
<path d="M4000 4875 l0 -125 125 0 125 0 0 -125 0 -125 250 0 250 0 0 -125 0
-125 -250 0 -250 0 0 -125 0 -125 250 0 250 0 0 -125 0 -125 125 0 125 0 0
500 0 500 -125 0 -125 0 0 125 0 125 -375 0 -375 0 0 -125z"/>
<path d="M750 3375 l0 -125 125 0 125 0 0 -125 0 -125 250 0 250 0 0 -125 0
-125 -250 0 -250 0 0 -125 0 -125 250 0 250 0 0 -125 0 -125 125 0 125 0 0
500 0 500 -125 0 -125 0 0 125 0 125 -375 0 -375 0 0 -125z"/>
<path d="M2935 3488 c-51 -6 -92 -19 -150 -47 -302 -149 -371 -547 -138 -792
192 -201 524 -201 716 0 233 245 164 644 -138 791 -92 46 -179 60 -290 48z
m190 -275 c81 -42 126 -120 126 -218 0 -144 -102 -246 -246 -246 -144 0 -246
102 -246 246 0 97 45 176 126 218 75 39 164 39 240 0z"/>
<path d="M4000 3375 l0 -125 125 0 125 0 0 125 0 125 -125 0 -125 0 0 -125z"/>
<path d="M4500 3125 l0 -375 125 0 125 0 0 375 0 375 -125 0 -125 0 0 -375z"/>
<path d="M2000 3000 l0 -250 125 0 125 0 0 250 0 250 -125 0 -125 0 0 -250z"/>
<path d="M4000 2625 l0 -375 -125 0 -125 0 0 -125 0 -125 125 0 125 0 0 -125
0 -125 -125 0 -125 0 0 -250 0 -250 125 0 125 0 0 -125 0 -125 -125 0 -125 0
0 -125 0 -125 250 0 250 0 0 125 0 125 125 0 125 0 0 -125 0 -125 125 0 125 0
0 375 0 375 -125 0 -125 0 0 -125 0 -125 -125 0 -125 0 0 125 0 125 -125 0
-125 0 0 125 0 125 125 0 125 0 0 125 0 125 125 0 125 0 0 -125 0 -125 125 0
125 0 0 125 0 125 -125 0 -125 0 0 125 0 125 250 0 250 0 0 125 0 125 -250 0
-250 0 0 -125 0 -125 -125 0 -125 0 0 375 0 375 -125 0 -125 0 0 -375z m250
-500 l0 -125 -125 0 -125 0 0 125 0 125 125 0 125 0 0 -125z"/>
<path d="M2000 2375 l0 -125 125 0 125 0 0 125 0 125 -125 0 -125 0 0 -125z"/>
<path d="M750 1875 l0 -125 125 0 125 0 0 125 0 125 -125 0 -125 0 0 -125z"/>
<path d="M1250 1625 l0 -375 125 0 125 0 0 375 0 375 -125 0 -125 0 0 -375z"/>
<path d="M2000 1875 l0 -125 250 0 250 0 0 125 0 125 -250 0 -250 0 0 -125z"/>
<path d="M2750 1750 l0 -250 125 0 125 0 0 -125 0 -125 -125 0 -125 0 0 -125
0 -125 125 0 125 0 0 -125 0 -125 250 0 250 0 0 125 0 125 -125 0 -125 0 0
250 0 250 -125 0 -125 0 0 125 0 125 125 0 125 0 0 125 0 125 -250 0 -250 0 0
-250z"/>
<path d="M750 1250 l0 -250 -125 0 -125 0 0 -250 0 -250 250 0 250 0 0 500 0
500 -125 0 -125 0 0 -250z"/>
<path d="M2250 1125 l0 -375 125 0 125 0 0 375 0 375 -125 0 -125 0 0 -375z"/>
<path d="M1250 875 l0 -125 250 0 250 0 0 125 0 125 -250 0 -250 0 0 -125z"/>
</g>
</svg>
